<svg xmlns="http://www.w3.org/2000/svg" width="24" height="24" fill="currentColor"><g transform="translate(5, 2)"><path d="M10.094 3c0-.687-.406-1.344-1-1.719-.625-.343-1.406-.343-2 0a2.02 2.02 0 0 0-1 1.719c0 .719.375 1.375 1 1.75.593.344 1.375.344 2 0 .594-.375 1-1.031 1-1.75m-.688 2.719A3.1 3.1 0 0 1 8.094 6c-.5 0-.938-.094-1.344-.281L4.531 9.625a7.5 7.5 0 0 0 3.563.875c2.75 0 5.187-1.5 6.469-3.75.156-.219.468-.312.687-.156.25.125.344.437.188.687-1.47 2.532-4.22 4.25-7.344 4.25A8.4 8.4 0 0 1 4.03 10.5L1 15.75c-.125.25-.437.344-.656.188-.25-.126-.344-.438-.188-.657L3.188 9.97A8.8 8.8 0 0 1 .717 7.28c-.124-.25-.062-.562.188-.687.219-.157.532-.063.688.156a7.2 7.2 0 0 0 2.093 2.344l2.25-3.969c-.53-.531-.843-1.281-.843-2.125a3 3 0 0 1 6 0c0 .844-.344 1.594-.875 2.125l1.5 2.656c.156.219.062.532-.188.657-.219.156-.531.062-.656-.188zm3.469 6.031c-.156-.219-.062-.531.188-.656.218-.156.53-.063.656.187l2.281 4c.156.219.063.531-.187.656-.22.157-.532.063-.657-.187z"/></g></svg>