<svg xmlns="http://www.w3.org/2000/svg" width="96" height="96" fill="none"><path fill="var(--empty-state-icon)" fill-opacity=".24" d="M16 28c0-4.375 3.5-8 8-8h48c4.375 0 8 3.625 8 8v40c0 4.5-3.625 8-8 8H24c-4.5 0-8-3.5-8-8zm40.375 13.375C55.875 40.5 54.875 40 54 40c-1 0-2 .5-2.5 1.375l-10.875 16-3.375-4.25C36.75 52.5 35.875 52 35 52c-1 0-1.875.5-2.375 1.125l-8 10c-.75 1-.875 2.25-.375 3.25S25.75 68 27 68h42c1 0 2.125-.5 2.625-1.5s.375-2.25-.25-3.125zM30 40c2.125 0 4-1.125 5.125-3 1.125-1.75 1.125-4.125 0-6-1.125-1.75-3-3-5.125-3-2.25 0-4.125 1.25-5.25 3-1.125 1.875-1.125 4.25 0 6 1.125 1.875 3 3 5.25 3"/></svg>